<mxfile host="Electron" modified="2024-06-28T02:20:29.239Z" agent="Mozilla/5.0 (Windows NT 10.0; Win64; x64) AppleWebKit/537.36 (KHTML, like Gecko) draw.io/24.6.1 Chrome/124.0.6367.207 Electron/30.0.6 Safari/537.36" etag="JScPIII5rgzT2ag_nkXS" version="24.6.1" type="device">
  <diagram name="Page-1" id="Mo8YpzKvBvpuAzQxRtYg">
    <mxGraphModel dx="1036" dy="654" grid="1" gridSize="10" guides="1" tooltips="1" connect="1" arrows="1" fold="1" page="1" pageScale="1" pageWidth="827" pageHeight="1169" math="0" shadow="0">
      <root>
        <mxCell id="0" />
        <mxCell id="1" parent="0" />
        <mxCell id="LDsa4IWOsl2M_nbmBJ4K-1" value="Admin" style="rounded=1;whiteSpace=wrap;html=1;" parent="1" vertex="1">
          <mxGeometry x="365" y="10" width="90" height="30" as="geometry" />
        </mxCell>
        <mxCell id="LDsa4IWOsl2M_nbmBJ4K-3" value="" style="endArrow=none;html=1;rounded=0;exitX=0.5;exitY=1;exitDx=0;exitDy=0;" parent="1" edge="1">
          <mxGeometry width="50" height="50" relative="1" as="geometry">
            <mxPoint x="409" y="40" as="sourcePoint" />
            <mxPoint x="409" y="80" as="targetPoint" />
          </mxGeometry>
        </mxCell>
        <mxCell id="LDsa4IWOsl2M_nbmBJ4K-4" value="" style="endArrow=none;html=1;rounded=0;" parent="1" edge="1">
          <mxGeometry width="50" height="50" relative="1" as="geometry">
            <mxPoint x="100" y="80" as="sourcePoint" />
            <mxPoint x="770" y="80" as="targetPoint" />
          </mxGeometry>
        </mxCell>
        <mxCell id="LDsa4IWOsl2M_nbmBJ4K-5" value="" style="endArrow=classic;html=1;rounded=0;" parent="1" edge="1">
          <mxGeometry width="50" height="50" relative="1" as="geometry">
            <mxPoint x="100" y="80" as="sourcePoint" />
            <mxPoint x="100" y="120" as="targetPoint" />
          </mxGeometry>
        </mxCell>
        <mxCell id="LDsa4IWOsl2M_nbmBJ4K-6" value="" style="endArrow=classic;html=1;rounded=0;" parent="1" edge="1">
          <mxGeometry width="50" height="50" relative="1" as="geometry">
            <mxPoint x="225" y="80" as="sourcePoint" />
            <mxPoint x="225" y="120" as="targetPoint" />
            <Array as="points">
              <mxPoint x="225" y="100" />
            </Array>
          </mxGeometry>
        </mxCell>
        <mxCell id="LDsa4IWOsl2M_nbmBJ4K-7" value="" style="endArrow=classic;html=1;rounded=0;" parent="1" edge="1">
          <mxGeometry width="50" height="50" relative="1" as="geometry">
            <mxPoint x="360" y="80" as="sourcePoint" />
            <mxPoint x="360" y="120" as="targetPoint" />
          </mxGeometry>
        </mxCell>
        <mxCell id="LDsa4IWOsl2M_nbmBJ4K-8" value="" style="endArrow=classic;html=1;rounded=0;" parent="1" edge="1">
          <mxGeometry width="50" height="50" relative="1" as="geometry">
            <mxPoint x="510" y="80" as="sourcePoint" />
            <mxPoint x="510" y="120" as="targetPoint" />
          </mxGeometry>
        </mxCell>
        <mxCell id="LDsa4IWOsl2M_nbmBJ4K-9" value="" style="endArrow=classic;html=1;rounded=0;" parent="1" edge="1">
          <mxGeometry width="50" height="50" relative="1" as="geometry">
            <mxPoint x="670.52" y="80" as="sourcePoint" />
            <mxPoint x="670.52" y="120" as="targetPoint" />
          </mxGeometry>
        </mxCell>
        <mxCell id="LDsa4IWOsl2M_nbmBJ4K-19" style="edgeStyle=orthogonalEdgeStyle;rounded=0;orthogonalLoop=1;jettySize=auto;html=1;exitX=1;exitY=0.5;exitDx=0;exitDy=0;" parent="1" source="LDsa4IWOsl2M_nbmBJ4K-11" edge="1">
          <mxGeometry relative="1" as="geometry">
            <mxPoint x="150" y="170" as="targetPoint" />
          </mxGeometry>
        </mxCell>
        <mxCell id="LDsa4IWOsl2M_nbmBJ4K-11" value="Home" style="rounded=1;whiteSpace=wrap;html=1;" parent="1" vertex="1">
          <mxGeometry x="60" y="120" width="80" height="30" as="geometry" />
        </mxCell>
        <mxCell id="LDsa4IWOsl2M_nbmBJ4K-12" value="Cars" style="rounded=1;whiteSpace=wrap;html=1;" parent="1" vertex="1">
          <mxGeometry x="190" y="120" width="80" height="30" as="geometry" />
        </mxCell>
        <mxCell id="LDsa4IWOsl2M_nbmBJ4K-13" value="Users" style="rounded=1;whiteSpace=wrap;html=1;" parent="1" vertex="1">
          <mxGeometry x="320" y="120" width="80" height="30" as="geometry" />
        </mxCell>
        <mxCell id="YWyFQVMJNNjKmxoikdoH-2" style="edgeStyle=orthogonalEdgeStyle;rounded=0;orthogonalLoop=1;jettySize=auto;html=1;exitX=0.5;exitY=1;exitDx=0;exitDy=0;entryX=0.5;entryY=0;entryDx=0;entryDy=0;" parent="1" edge="1">
          <mxGeometry relative="1" as="geometry">
            <mxPoint x="507" y="150" as="sourcePoint" />
            <mxPoint x="507" y="180" as="targetPoint" />
          </mxGeometry>
        </mxCell>
        <mxCell id="LDsa4IWOsl2M_nbmBJ4K-14" value="Customer" style="rounded=1;whiteSpace=wrap;html=1;" parent="1" vertex="1">
          <mxGeometry x="480" y="120" width="67" height="30" as="geometry" />
        </mxCell>
        <mxCell id="YWyFQVMJNNjKmxoikdoH-17" style="edgeStyle=orthogonalEdgeStyle;rounded=0;orthogonalLoop=1;jettySize=auto;html=1;exitX=0.75;exitY=1;exitDx=0;exitDy=0;" parent="1" source="LDsa4IWOsl2M_nbmBJ4K-15" target="YWyFQVMJNNjKmxoikdoH-16" edge="1">
          <mxGeometry relative="1" as="geometry" />
        </mxCell>
        <mxCell id="LDsa4IWOsl2M_nbmBJ4K-15" value="Stats" style="rounded=1;whiteSpace=wrap;html=1;" parent="1" vertex="1">
          <mxGeometry x="650" y="120" width="60" height="30" as="geometry" />
        </mxCell>
        <mxCell id="YWyFQVMJNNjKmxoikdoH-22" style="edgeStyle=orthogonalEdgeStyle;rounded=0;orthogonalLoop=1;jettySize=auto;html=1;exitX=0.25;exitY=1;exitDx=0;exitDy=0;" parent="1" source="LDsa4IWOsl2M_nbmBJ4K-20" edge="1">
          <mxGeometry relative="1" as="geometry">
            <Array as="points">
              <mxPoint x="118" y="550" />
            </Array>
            <mxPoint x="348.9091534325669" y="550" as="targetPoint" />
          </mxGeometry>
        </mxCell>
        <mxCell id="LDsa4IWOsl2M_nbmBJ4K-20" value="Rented&amp;nbsp;&lt;div&gt;Cars&lt;/div&gt;" style="rounded=1;whiteSpace=wrap;html=1;" parent="1" vertex="1">
          <mxGeometry x="100" y="170" width="70" height="30" as="geometry" />
        </mxCell>
        <mxCell id="YWyFQVMJNNjKmxoikdoH-21" style="edgeStyle=orthogonalEdgeStyle;rounded=0;orthogonalLoop=1;jettySize=auto;html=1;entryX=0;entryY=0.5;entryDx=0;entryDy=0;" parent="1" edge="1">
          <mxGeometry relative="1" as="geometry">
            <mxPoint x="342" y="581" as="targetPoint" />
            <mxPoint x="30" y="230" as="sourcePoint" />
            <Array as="points">
              <mxPoint x="30" y="200" />
              <mxPoint x="30" y="543" />
            </Array>
          </mxGeometry>
        </mxCell>
        <mxCell id="LDsa4IWOsl2M_nbmBJ4K-21" value="Available&amp;nbsp;&lt;div&gt;Cars&lt;/div&gt;" style="rounded=1;whiteSpace=wrap;html=1;" parent="1" vertex="1">
          <mxGeometry x="10" y="170" width="70" height="30" as="geometry" />
        </mxCell>
        <mxCell id="LDsa4IWOsl2M_nbmBJ4K-25" value="" style="endArrow=classic;html=1;rounded=0;exitX=0;exitY=0.5;exitDx=0;exitDy=0;" parent="1" source="LDsa4IWOsl2M_nbmBJ4K-11" edge="1">
          <mxGeometry width="50" height="50" relative="1" as="geometry">
            <mxPoint x="40" y="130" as="sourcePoint" />
            <mxPoint x="40" y="170" as="targetPoint" />
            <Array as="points">
              <mxPoint x="40" y="135" />
            </Array>
          </mxGeometry>
        </mxCell>
        <mxCell id="LDsa4IWOsl2M_nbmBJ4K-30" value="" style="edgeStyle=orthogonalEdgeStyle;rounded=0;orthogonalLoop=1;jettySize=auto;html=1;exitX=0.25;exitY=1;exitDx=0;exitDy=0;" parent="1" source="LDsa4IWOsl2M_nbmBJ4K-26" target="LDsa4IWOsl2M_nbmBJ4K-29" edge="1">
          <mxGeometry relative="1" as="geometry">
            <Array as="points">
              <mxPoint x="210" y="200" />
            </Array>
          </mxGeometry>
        </mxCell>
        <mxCell id="LDsa4IWOsl2M_nbmBJ4K-26" value="Add Cars" style="shape=parallelogram;perimeter=parallelogramPerimeter;whiteSpace=wrap;html=1;fixedSize=1;" parent="1" vertex="1">
          <mxGeometry x="180" y="170" width="90" height="30" as="geometry" />
        </mxCell>
        <mxCell id="LDsa4IWOsl2M_nbmBJ4K-27" value="" style="endArrow=classic;html=1;rounded=0;exitX=0.25;exitY=1;exitDx=0;exitDy=0;entryX=0.334;entryY=-0.068;entryDx=0;entryDy=0;entryPerimeter=0;" parent="1" source="LDsa4IWOsl2M_nbmBJ4K-12" target="LDsa4IWOsl2M_nbmBJ4K-26" edge="1">
          <mxGeometry width="50" height="50" relative="1" as="geometry">
            <mxPoint x="224" y="150" as="sourcePoint" />
            <mxPoint x="218" y="170" as="targetPoint" />
          </mxGeometry>
        </mxCell>
        <mxCell id="NozpxcgHp3kUgVR-T8vZ-3" style="edgeStyle=orthogonalEdgeStyle;rounded=0;orthogonalLoop=1;jettySize=auto;html=1;exitX=0.5;exitY=1;exitDx=0;exitDy=0;" parent="1" source="LDsa4IWOsl2M_nbmBJ4K-29" edge="1">
          <mxGeometry relative="1" as="geometry">
            <mxPoint x="210.12121212121212" y="320" as="targetPoint" />
          </mxGeometry>
        </mxCell>
        <mxCell id="LDsa4IWOsl2M_nbmBJ4K-29" value="Enter&amp;nbsp;&lt;div&gt;Details&lt;/div&gt;" style="rhombus;whiteSpace=wrap;html=1;" parent="1" vertex="1">
          <mxGeometry x="170" y="230" width="80" height="60" as="geometry" />
        </mxCell>
        <mxCell id="NozpxcgHp3kUgVR-T8vZ-18" style="edgeStyle=orthogonalEdgeStyle;rounded=0;orthogonalLoop=1;jettySize=auto;html=1;exitX=0;exitY=1;exitDx=0;exitDy=0;" parent="1" source="LDsa4IWOsl2M_nbmBJ4K-48" edge="1">
          <mxGeometry relative="1" as="geometry">
            <mxPoint x="345.07547169811323" y="260" as="targetPoint" />
          </mxGeometry>
        </mxCell>
        <mxCell id="NozpxcgHp3kUgVR-T8vZ-23" style="edgeStyle=orthogonalEdgeStyle;rounded=0;orthogonalLoop=1;jettySize=auto;html=1;exitX=1;exitY=0.5;exitDx=0;exitDy=0;entryX=0.75;entryY=0;entryDx=0;entryDy=0;" parent="1" source="LDsa4IWOsl2M_nbmBJ4K-48" target="NozpxcgHp3kUgVR-T8vZ-30" edge="1">
          <mxGeometry relative="1" as="geometry">
            <mxPoint x="410" y="230" as="targetPoint" />
          </mxGeometry>
        </mxCell>
        <mxCell id="LDsa4IWOsl2M_nbmBJ4K-48" value="&amp;nbsp;Create?" style="rhombus;whiteSpace=wrap;html=1;" parent="1" vertex="1">
          <mxGeometry x="330" y="170" width="60" height="50" as="geometry" />
        </mxCell>
        <mxCell id="YWyFQVMJNNjKmxoikdoH-23" style="edgeStyle=orthogonalEdgeStyle;rounded=0;orthogonalLoop=1;jettySize=auto;html=1;exitX=0.25;exitY=1;exitDx=0;exitDy=0;entryX=0;entryY=0;entryDx=0;entryDy=0;" parent="1" source="NozpxcgHp3kUgVR-T8vZ-1" edge="1">
          <mxGeometry relative="1" as="geometry">
            <Array as="points">
              <mxPoint x="172" y="530" />
              <mxPoint x="347" y="530" />
            </Array>
            <mxPoint x="363.38120497338195" y="529.381204973382" as="targetPoint" />
          </mxGeometry>
        </mxCell>
        <mxCell id="NozpxcgHp3kUgVR-T8vZ-1" value="Add Success" style="rounded=1;whiteSpace=wrap;html=1;" parent="1" vertex="1">
          <mxGeometry x="150" y="320" width="90" height="30" as="geometry" />
        </mxCell>
        <mxCell id="YWyFQVMJNNjKmxoikdoH-24" style="edgeStyle=orthogonalEdgeStyle;rounded=0;orthogonalLoop=1;jettySize=auto;html=1;exitX=0.25;exitY=1;exitDx=0;exitDy=0;" parent="1" source="NozpxcgHp3kUgVR-T8vZ-5" edge="1">
          <mxGeometry relative="1" as="geometry">
            <Array as="points">
              <mxPoint x="271" y="520" />
            </Array>
            <mxPoint x="374.90012468847317" y="520" as="targetPoint" />
          </mxGeometry>
        </mxCell>
        <mxCell id="NozpxcgHp3kUgVR-T8vZ-5" value="Display&lt;div&gt;Cars&lt;/div&gt;" style="shape=parallelogram;perimeter=parallelogramPerimeter;whiteSpace=wrap;html=1;fixedSize=1;" parent="1" vertex="1">
          <mxGeometry x="251" y="245" width="80" height="25" as="geometry" />
        </mxCell>
        <mxCell id="NozpxcgHp3kUgVR-T8vZ-6" value="" style="endArrow=classic;html=1;rounded=0;exitX=1;exitY=0.5;exitDx=0;exitDy=0;entryX=0.421;entryY=0.167;entryDx=0;entryDy=0;entryPerimeter=0;" parent="1" source="LDsa4IWOsl2M_nbmBJ4K-12" edge="1">
          <mxGeometry width="50" height="50" relative="1" as="geometry">
            <mxPoint x="280.0000000000001" y="137.49" as="sourcePoint" />
            <mxPoint x="299.9949999999999" y="245" as="targetPoint" />
            <Array as="points">
              <mxPoint x="300" y="135" />
            </Array>
          </mxGeometry>
        </mxCell>
        <mxCell id="NozpxcgHp3kUgVR-T8vZ-16" value="" style="edgeStyle=orthogonalEdgeStyle;rounded=0;orthogonalLoop=1;jettySize=auto;html=1;exitX=0.5;exitY=1;exitDx=0;exitDy=0;" parent="1" source="LDsa4IWOsl2M_nbmBJ4K-13" edge="1">
          <mxGeometry relative="1" as="geometry">
            <mxPoint x="370" y="130" as="sourcePoint" />
            <mxPoint x="360" y="170" as="targetPoint" />
          </mxGeometry>
        </mxCell>
        <mxCell id="NozpxcgHp3kUgVR-T8vZ-20" value="Enter&lt;div&gt;&amp;nbsp;Details&lt;/div&gt;" style="shape=parallelogram;perimeter=parallelogramPerimeter;whiteSpace=wrap;html=1;fixedSize=1;" parent="1" vertex="1">
          <mxGeometry x="305" y="260" width="85" height="30" as="geometry" />
        </mxCell>
        <mxCell id="NozpxcgHp3kUgVR-T8vZ-21" value="yes" style="text;html=1;align=center;verticalAlign=middle;resizable=0;points=[];autosize=1;strokeColor=none;fillColor=none;" parent="1" vertex="1">
          <mxGeometry x="342" y="234" width="40" height="30" as="geometry" />
        </mxCell>
        <mxCell id="NozpxcgHp3kUgVR-T8vZ-24" value="no" style="text;html=1;align=center;verticalAlign=middle;resizable=0;points=[];autosize=1;strokeColor=none;fillColor=none;" parent="1" vertex="1">
          <mxGeometry x="379" y="172" width="40" height="30" as="geometry" />
        </mxCell>
        <mxCell id="YWyFQVMJNNjKmxoikdoH-25" style="edgeStyle=orthogonalEdgeStyle;rounded=0;orthogonalLoop=1;jettySize=auto;html=1;exitX=0.25;exitY=1;exitDx=0;exitDy=0;" parent="1" source="NozpxcgHp3kUgVR-T8vZ-28" edge="1">
          <mxGeometry relative="1" as="geometry">
            <Array as="points">
              <mxPoint x="308" y="510" />
            </Array>
            <mxPoint x="398.02943725152295" y="510" as="targetPoint" />
          </mxGeometry>
        </mxCell>
        <mxCell id="NozpxcgHp3kUgVR-T8vZ-28" value="User Created" style="rounded=1;whiteSpace=wrap;html=1;" parent="1" vertex="1">
          <mxGeometry x="289" y="325" width="75" height="30" as="geometry" />
        </mxCell>
        <mxCell id="NozpxcgHp3kUgVR-T8vZ-29" value="" style="endArrow=classic;html=1;rounded=0;entryX=0.25;entryY=0;entryDx=0;entryDy=0;exitX=0.034;exitY=0.982;exitDx=0;exitDy=0;exitPerimeter=0;" parent="1" source="NozpxcgHp3kUgVR-T8vZ-20" target="NozpxcgHp3kUgVR-T8vZ-28" edge="1">
          <mxGeometry width="50" height="50" relative="1" as="geometry">
            <mxPoint x="240" y="420" as="sourcePoint" />
            <mxPoint x="290" y="370" as="targetPoint" />
          </mxGeometry>
        </mxCell>
        <mxCell id="YWyFQVMJNNjKmxoikdoH-28" style="edgeStyle=orthogonalEdgeStyle;rounded=0;orthogonalLoop=1;jettySize=auto;html=1;exitX=0.25;exitY=1;exitDx=0;exitDy=0;" parent="1" source="NozpxcgHp3kUgVR-T8vZ-30" edge="1">
          <mxGeometry relative="1" as="geometry">
            <mxPoint x="415" y="508" as="targetPoint" />
          </mxGeometry>
        </mxCell>
        <mxCell id="NozpxcgHp3kUgVR-T8vZ-30" value="Cancel" style="rounded=1;whiteSpace=wrap;html=1;" parent="1" vertex="1">
          <mxGeometry x="371" y="305" width="56" height="20" as="geometry" />
        </mxCell>
        <mxCell id="NozpxcgHp3kUgVR-T8vZ-32" value="History" style="shape=parallelogram;perimeter=parallelogramPerimeter;whiteSpace=wrap;html=1;fixedSize=1;" parent="1" vertex="1">
          <mxGeometry x="633" y="220" width="70" height="30" as="geometry" />
        </mxCell>
        <mxCell id="YWyFQVMJNNjKmxoikdoH-4" style="edgeStyle=orthogonalEdgeStyle;rounded=0;orthogonalLoop=1;jettySize=auto;html=1;exitX=0.5;exitY=1;exitDx=0;exitDy=0;" parent="1" edge="1">
          <mxGeometry relative="1" as="geometry">
            <mxPoint x="507" y="230" as="sourcePoint" />
            <mxPoint x="507" y="260" as="targetPoint" />
          </mxGeometry>
        </mxCell>
        <mxCell id="YWyFQVMJNNjKmxoikdoH-1" value="Add?" style="rhombus;whiteSpace=wrap;html=1;" parent="1" vertex="1">
          <mxGeometry x="477" y="180" width="60" height="50" as="geometry" />
        </mxCell>
        <mxCell id="YWyFQVMJNNjKmxoikdoH-8" value="" style="edgeStyle=orthogonalEdgeStyle;rounded=0;orthogonalLoop=1;jettySize=auto;html=1;" parent="1" edge="1">
          <mxGeometry relative="1" as="geometry">
            <mxPoint x="507" y="290" as="sourcePoint" />
            <mxPoint x="507" y="320" as="targetPoint" />
          </mxGeometry>
        </mxCell>
        <mxCell id="YWyFQVMJNNjKmxoikdoH-3" value="Enter&lt;div&gt;&amp;nbsp;Details&lt;/div&gt;" style="shape=parallelogram;perimeter=parallelogramPerimeter;whiteSpace=wrap;html=1;fixedSize=1;" parent="1" vertex="1">
          <mxGeometry x="464.5" y="260" width="85" height="30" as="geometry" />
        </mxCell>
        <mxCell id="YWyFQVMJNNjKmxoikdoH-5" style="edgeStyle=orthogonalEdgeStyle;rounded=0;orthogonalLoop=1;jettySize=auto;html=1;" parent="1" edge="1">
          <mxGeometry relative="1" as="geometry">
            <mxPoint x="587" y="280" as="targetPoint" />
            <mxPoint x="537" y="206" as="sourcePoint" />
            <Array as="points">
              <mxPoint x="537" y="205" />
              <mxPoint x="537" y="206" />
              <mxPoint x="587" y="206" />
              <mxPoint x="587" y="250" />
            </Array>
          </mxGeometry>
        </mxCell>
        <mxCell id="YWyFQVMJNNjKmxoikdoH-30" style="edgeStyle=orthogonalEdgeStyle;rounded=0;orthogonalLoop=1;jettySize=auto;html=1;exitX=0.5;exitY=1;exitDx=0;exitDy=0;entryX=0.927;entryY=0.219;entryDx=0;entryDy=0;entryPerimeter=0;" parent="1" source="YWyFQVMJNNjKmxoikdoH-6" edge="1">
          <mxGeometry relative="1" as="geometry">
            <mxPoint x="477.3420000000001" y="539.9739999999999" as="targetPoint" />
            <Array as="points">
              <mxPoint x="560" y="300" />
              <mxPoint x="560" y="360" />
              <mxPoint x="520" y="360" />
              <mxPoint x="520" y="540" />
            </Array>
          </mxGeometry>
        </mxCell>
        <mxCell id="YWyFQVMJNNjKmxoikdoH-6" value="Delete" style="rounded=1;whiteSpace=wrap;html=1;" parent="1" vertex="1">
          <mxGeometry x="557" y="280" width="56" height="20" as="geometry" />
        </mxCell>
        <mxCell id="YWyFQVMJNNjKmxoikdoH-7" value="Added" style="rounded=1;whiteSpace=wrap;html=1;" parent="1" vertex="1">
          <mxGeometry x="462" y="320" width="90" height="25" as="geometry" />
        </mxCell>
        <mxCell id="YWyFQVMJNNjKmxoikdoH-9" value="yes" style="text;html=1;align=center;verticalAlign=middle;resizable=0;points=[];autosize=1;strokeColor=none;fillColor=none;" parent="1" vertex="1">
          <mxGeometry x="502" y="233" width="40" height="30" as="geometry" />
        </mxCell>
        <mxCell id="YWyFQVMJNNjKmxoikdoH-10" value="no" style="text;html=1;align=center;verticalAlign=middle;resizable=0;points=[];autosize=1;strokeColor=none;fillColor=none;" parent="1" vertex="1">
          <mxGeometry x="527" y="183" width="40" height="30" as="geometry" />
        </mxCell>
        <mxCell id="YWyFQVMJNNjKmxoikdoH-31" style="edgeStyle=orthogonalEdgeStyle;rounded=0;orthogonalLoop=1;jettySize=auto;html=1;exitX=0.5;exitY=1;exitDx=0;exitDy=0;" parent="1" source="YWyFQVMJNNjKmxoikdoH-11" edge="1">
          <mxGeometry relative="1" as="geometry">
            <mxPoint x="634.5" y="380" as="sourcePoint" />
            <mxPoint x="490" y="570" as="targetPoint" />
            <Array as="points">
              <mxPoint x="620" y="399" />
              <mxPoint x="620" y="570" />
            </Array>
          </mxGeometry>
        </mxCell>
        <mxCell id="YWyFQVMJNNjKmxoikdoH-11" value="Display Customers&lt;div&gt;Details&lt;/div&gt;" style="shape=parallelogram;perimeter=parallelogramPerimeter;whiteSpace=wrap;html=1;fixedSize=1;" parent="1" vertex="1">
          <mxGeometry x="550" y="369" width="142" height="30" as="geometry" />
        </mxCell>
        <mxCell id="YWyFQVMJNNjKmxoikdoH-12" value="" style="endArrow=classic;html=1;rounded=0;" parent="1" source="LDsa4IWOsl2M_nbmBJ4K-14" target="YWyFQVMJNNjKmxoikdoH-11" edge="1">
          <mxGeometry width="50" height="50" relative="1" as="geometry">
            <mxPoint x="557" y="135" as="sourcePoint" />
            <mxPoint x="620.0240000000001" y="368.6200000000001" as="targetPoint" />
            <Array as="points">
              <mxPoint x="621" y="135" />
            </Array>
          </mxGeometry>
        </mxCell>
        <mxCell id="YWyFQVMJNNjKmxoikdoH-15" value="" style="endArrow=classic;html=1;rounded=0;exitX=0.25;exitY=1;exitDx=0;exitDy=0;entryX=0.5;entryY=0;entryDx=0;entryDy=0;" parent="1" target="NozpxcgHp3kUgVR-T8vZ-32" edge="1">
          <mxGeometry width="50" height="50" relative="1" as="geometry">
            <mxPoint x="668" y="150" as="sourcePoint" />
            <mxPoint x="674" y="220" as="targetPoint" />
          </mxGeometry>
        </mxCell>
        <mxCell id="YWyFQVMJNNjKmxoikdoH-33" style="edgeStyle=orthogonalEdgeStyle;rounded=0;orthogonalLoop=1;jettySize=auto;html=1;exitX=0.659;exitY=1.077;exitDx=0;exitDy=0;entryX=0.907;entryY=0.8;entryDx=0;entryDy=0;entryPerimeter=0;exitPerimeter=0;" parent="1" source="YWyFQVMJNNjKmxoikdoH-16" edge="1">
          <mxGeometry relative="1" as="geometry">
            <mxPoint x="474.422" y="624.8" as="targetPoint" />
            <Array as="points">
              <mxPoint x="744" y="290" />
              <mxPoint x="740" y="290" />
              <mxPoint x="740" y="625" />
            </Array>
          </mxGeometry>
        </mxCell>
        <mxCell id="YWyFQVMJNNjKmxoikdoH-16" value="Revenue" style="shape=parallelogram;perimeter=parallelogramPerimeter;whiteSpace=wrap;html=1;fixedSize=1;" parent="1" vertex="1">
          <mxGeometry x="690" y="275" width="82" height="30" as="geometry" />
        </mxCell>
        <mxCell id="YWyFQVMJNNjKmxoikdoH-34" style="edgeStyle=orthogonalEdgeStyle;rounded=0;orthogonalLoop=1;jettySize=auto;html=1;exitX=0.75;exitY=1;exitDx=0;exitDy=0;entryX=0.744;entryY=0.934;entryDx=0;entryDy=0;entryPerimeter=0;" parent="1" source="YWyFQVMJNNjKmxoikdoH-18" target="v3XbrIiaIUSdLE8g42BO-1" edge="1">
          <mxGeometry relative="1" as="geometry">
            <mxPoint x="449.894" y="647.722" as="targetPoint" />
            <mxPoint x="781" y="160" as="sourcePoint" />
            <Array as="points">
              <mxPoint x="781" y="150" />
              <mxPoint x="781" y="640" />
              <mxPoint x="500" y="640" />
            </Array>
          </mxGeometry>
        </mxCell>
        <mxCell id="YWyFQVMJNNjKmxoikdoH-18" value="Logout" style="rounded=1;whiteSpace=wrap;html=1;" parent="1" vertex="1">
          <mxGeometry x="740" y="120" width="60" height="30" as="geometry" />
        </mxCell>
        <mxCell id="YWyFQVMJNNjKmxoikdoH-19" value="" style="endArrow=classic;html=1;rounded=0;entryX=0.5;entryY=0;entryDx=0;entryDy=0;" parent="1" target="YWyFQVMJNNjKmxoikdoH-18" edge="1">
          <mxGeometry width="50" height="50" relative="1" as="geometry">
            <mxPoint x="770" y="80" as="sourcePoint" />
            <mxPoint x="777" y="120" as="targetPoint" />
          </mxGeometry>
        </mxCell>
        <mxCell id="YWyFQVMJNNjKmxoikdoH-27" value="" style="endArrow=classic;html=1;rounded=0;exitX=1;exitY=0.5;exitDx=0;exitDy=0;entryX=0.661;entryY=0.035;entryDx=0;entryDy=0;entryPerimeter=0;" parent="1" source="LDsa4IWOsl2M_nbmBJ4K-13" edge="1">
          <mxGeometry width="50" height="50" relative="1" as="geometry">
            <mxPoint x="410" y="140" as="sourcePoint" />
            <mxPoint x="438.5060000000001" y="513.1099999999999" as="targetPoint" />
            <Array as="points">
              <mxPoint x="440" y="135" />
            </Array>
          </mxGeometry>
        </mxCell>
        <mxCell id="YWyFQVMJNNjKmxoikdoH-29" style="edgeStyle=orthogonalEdgeStyle;rounded=0;orthogonalLoop=1;jettySize=auto;html=1;exitX=0.25;exitY=1;exitDx=0;exitDy=0;entryX=0.817;entryY=0.104;entryDx=0;entryDy=0;entryPerimeter=0;" parent="1" source="YWyFQVMJNNjKmxoikdoH-7" edge="1">
          <mxGeometry relative="1" as="geometry">
            <mxPoint x="461.2819999999999" y="523.184" as="targetPoint" />
          </mxGeometry>
        </mxCell>
        <mxCell id="YWyFQVMJNNjKmxoikdoH-32" style="edgeStyle=orthogonalEdgeStyle;rounded=0;orthogonalLoop=1;jettySize=auto;html=1;exitX=0.5;exitY=1;exitDx=0;exitDy=0;entryX=0.979;entryY=0.658;entryDx=0;entryDy=0;entryPerimeter=0;" parent="1" edge="1">
          <mxGeometry relative="1" as="geometry">
            <mxPoint x="671.07" y="245" as="sourcePoint" />
            <mxPoint x="488.00399999999996" y="599.068" as="targetPoint" />
            <Array as="points">
              <mxPoint x="671.07" y="325" />
              <mxPoint x="723.07" y="325" />
              <mxPoint x="723.07" y="599" />
            </Array>
          </mxGeometry>
        </mxCell>
        <mxCell id="v3XbrIiaIUSdLE8g42BO-1" value="" style="verticalLabelPosition=bottom;verticalAlign=top;html=1;shape=mxgraph.flowchart.or;" parent="1" vertex="1">
          <mxGeometry x="340" y="510" width="150" height="140" as="geometry" />
        </mxCell>
      </root>
    </mxGraphModel>
  </diagram>
</mxfile>
